<mxfile host="Electron" agent="Mozilla/5.0 (Macintosh; Intel Mac OS X 10_15_7) AppleWebKit/537.36 (KHTML, like Gecko) draw.io/26.2.15 Chrome/134.0.6998.205 Electron/35.2.1 Safari/537.36" version="26.2.15">
  <diagram name="Page-1" id="HYfxYmFi7s9t5QOdmr9X">
    <mxGraphModel dx="1234" dy="917" grid="1" gridSize="10" guides="1" tooltips="1" connect="1" arrows="1" fold="1" page="1" pageScale="1" pageWidth="1169" pageHeight="827" math="0" shadow="0">
      <root>
        <mxCell id="0" />
        <mxCell id="1" parent="0" />
        <mxCell id="rXjuU9vFeqK0e6MEDaii-29" value="With Stack Unwinding" style="swimlane;whiteSpace=wrap;html=1;" parent="1" vertex="1">
          <mxGeometry x="540" y="70" width="270" height="330" as="geometry" />
        </mxCell>
        <mxCell id="rXjuU9vFeqK0e6MEDaii-7" value="0x000077D5A27&lt;div&gt;(libc)&lt;/div&gt;" style="rounded=0;whiteSpace=wrap;html=1;fillColor=#f5f5f5;fontColor=#333333;strokeColor=#666666;" parent="rXjuU9vFeqK0e6MEDaii-29" vertex="1">
          <mxGeometry x="20" y="45" width="230" height="60" as="geometry" />
        </mxCell>
        <mxCell id="rXjuU9vFeqK0e6MEDaii-14" style="edgeStyle=orthogonalEdgeStyle;rounded=0;orthogonalLoop=1;jettySize=auto;html=1;exitX=1;exitY=0.5;exitDx=0;exitDy=0;entryX=1;entryY=0.5;entryDx=0;entryDy=0;" parent="1" source="rXjuU9vFeqK0e6MEDaii-7" target="rXjuU9vFeqK0e6MEDaii-11" edge="1">
          <mxGeometry relative="1" as="geometry">
            <Array as="points">
              <mxPoint x="820" y="145" />
              <mxPoint x="820" y="205" />
            </Array>
          </mxGeometry>
        </mxCell>
        <mxCell id="rXjuU9vFeqK0e6MEDaii-15" style="edgeStyle=orthogonalEdgeStyle;rounded=0;orthogonalLoop=1;jettySize=auto;html=1;exitX=1;exitY=0.75;exitDx=0;exitDy=0;entryX=1;entryY=0.75;entryDx=0;entryDy=0;" parent="1" source="rXjuU9vFeqK0e6MEDaii-11" target="rXjuU9vFeqK0e6MEDaii-12" edge="1">
          <mxGeometry relative="1" as="geometry">
            <Array as="points">
              <mxPoint x="820" y="220" />
              <mxPoint x="820" y="280" />
            </Array>
          </mxGeometry>
        </mxCell>
        <mxCell id="rXjuU9vFeqK0e6MEDaii-11" value="0x00007E642FD&lt;div&gt;(libc)&lt;/div&gt;" style="rounded=0;whiteSpace=wrap;html=1;fillColor=#f5f5f5;fontColor=#333333;strokeColor=#666666;" parent="1" vertex="1">
          <mxGeometry x="560" y="175" width="230" height="60" as="geometry" />
        </mxCell>
        <mxCell id="rXjuU9vFeqK0e6MEDaii-12" value="0x0000722AE12&lt;div&gt;&lt;span style=&quot;background-color: rgb(255, 255, 153);&quot;&gt;(./hello-world)&lt;/span&gt;&lt;/div&gt;" style="rounded=0;whiteSpace=wrap;html=1;fillColor=#e1d5e7;strokeColor=#9673a6;" parent="1" vertex="1">
          <mxGeometry x="560" y="235" width="230" height="60" as="geometry" />
        </mxCell>
        <mxCell id="rXjuU9vFeqK0e6MEDaii-16" value="libc =&amp;gt;&lt;div&gt;Unwind&lt;div&gt;Stack&lt;/div&gt;&lt;/div&gt;" style="text;html=1;align=center;verticalAlign=middle;whiteSpace=wrap;rounded=0;" parent="1" vertex="1">
          <mxGeometry x="820" y="155" width="60" height="30" as="geometry" />
        </mxCell>
        <mxCell id="rXjuU9vFeqK0e6MEDaii-17" value="libc =&amp;gt;&lt;div&gt;Unwind&lt;div&gt;Stack&lt;/div&gt;&lt;/div&gt;" style="text;html=1;align=center;verticalAlign=middle;whiteSpace=wrap;rounded=0;" parent="1" vertex="1">
          <mxGeometry x="820" y="235" width="60" height="30" as="geometry" />
        </mxCell>
        <mxCell id="rXjuU9vFeqK0e6MEDaii-21" value="Without Stack Unwinding" style="swimlane;whiteSpace=wrap;html=1;" parent="1" vertex="1">
          <mxGeometry x="230" y="70" width="270" height="330" as="geometry" />
        </mxCell>
        <mxCell id="rXjuU9vFeqK0e6MEDaii-1" value="0x000077D5000&lt;div&gt;(libc)&lt;/div&gt;" style="rounded=0;whiteSpace=wrap;html=1;fillColor=#f5f5f5;strokeColor=#666666;fontColor=#333333;" parent="rXjuU9vFeqK0e6MEDaii-21" vertex="1">
          <mxGeometry x="20" y="50" width="230" height="60" as="geometry" />
        </mxCell>
        <mxCell id="rXjuU9vFeqK0e6MEDaii-31" value="INCORRECT: libc" style="shape=hexagon;perimeter=hexagonPerimeter2;whiteSpace=wrap;html=1;fixedSize=1;fillColor=#f8cecc;strokeColor=#b85450;" parent="1" vertex="1">
          <mxGeometry x="265" y="410" width="200" height="30" as="geometry" />
        </mxCell>
        <mxCell id="rXjuU9vFeqK0e6MEDaii-32" value="CORRECT: hello-world" style="shape=hexagon;perimeter=hexagonPerimeter2;whiteSpace=wrap;html=1;fixedSize=1;fillColor=#d5e8d4;strokeColor=#82b366;" parent="1" vertex="1">
          <mxGeometry x="575" y="414" width="200" height="30" as="geometry" />
        </mxCell>
        <mxCell id="U91YUmRla69_HCBoeM7X-1" value="" style="edgeStyle=none;orthogonalLoop=1;jettySize=auto;html=1;rounded=0;" parent="1" edge="1">
          <mxGeometry width="100" relative="1" as="geometry">
            <mxPoint x="160" y="470" as="sourcePoint" />
            <mxPoint x="160" y="40" as="targetPoint" />
            <Array as="points" />
          </mxGeometry>
        </mxCell>
        <mxCell id="U91YUmRla69_HCBoeM7X-2" value="&lt;font style=&quot;font-size: 16px;&quot;&gt;Stack Grows&lt;/font&gt;&lt;div&gt;&lt;font style=&quot;font-size: 16px;&quot;&gt;Upwards&lt;/font&gt;&lt;/div&gt;" style="edgeLabel;html=1;align=center;verticalAlign=middle;resizable=0;points=[];" parent="U91YUmRla69_HCBoeM7X-1" vertex="1" connectable="0">
          <mxGeometry x="0.0605" y="1" relative="1" as="geometry">
            <mxPoint y="-82" as="offset" />
          </mxGeometry>
        </mxCell>
      </root>
    </mxGraphModel>
  </diagram>
</mxfile>
